<svg xmlns="http://www.w3.org/2000/svg" width="15" height="16" viewBox="0 0 15 16">
    <path fill="#192230" fill-rule="nonzero" d="M12.714 1.498c.928 0 1.668.74 1.668 1.669V14.33A1.66 1.66 0 0 1 12.714 16H1.669C.75 16 0 15.25 0 14.311V3.167c0-.929.74-1.669 1.669-1.669h1.646V.87c0-.49.381-.87.87-.87.49 0 .87.38.87.87v.628h4.272V.87c0-.49.381-.87.87-.87s.87.38.87.87v.628h1.647zm-.071 6.153H1.739v6.61h10.904V7.65zM1.739 5.911h10.924V3.238h-1.576v1.028c0 .489-.381.87-.87.87a.859.859 0 0 1-.87-.87V3.237H5.055v1.028c0 .489-.38.87-.87.87a.859.859 0 0 1-.87-.87V3.237H1.74v2.675z"/>
</svg>
